<?xml version="1.0" encoding="UTF-8" standalone="no"?>
<svg
   width="1292.0538"
   height="1356.5916"
   version="1.1"
   id="svg36"
   xmlns="http://www.w3.org/2000/svg"
   xmlns:svg="http://www.w3.org/2000/svg">
  <path
     fill="#d0d1c7"
     d="m 63.71822,682.32944 c 0,0 -8.20974,-13.4613 15.04541,-30.9145 307.18844,-230.5471 1125.69207,-84.1425 1125.69207,-84.1425 0,0 -7.8766,62.142 8.7368,79.3804 22.6403,23.4919 16.7154,23.5404 16.7154,23.5404 l 2.0387,104.9011 -263.85603,427.95686 -476.0667,13.3009 L 41.59949,840.41504 Z"
     id="path1"
     style="fill:#eff0ed;fill-opacity:1;stroke-width:2.69922" />
  <path
     fill="#16212f"
     d="m 406.52227,938.97224 c 5.7142,5.3715 7.2177,24.7924 9.5552,33.0007 4.281,15.0265 9.6254,29.49706 18.9971,42.09156 4.5455,6.1084 10.3785,12.3705 13.5987,19.2644 l -2.3861,-0.2457 c -3.8437,-2.2187 -7.6793,-4.4753 -11.2855,-7.0665 -18.8135,-13.5042 -31.9398,-35.32466 -35.0412,-58.33286 -1.409,-10.4379 -0.076,-20.3602 6.5618,-28.7116 z"
     id="path4"
     style="stroke-width:2.69922" />
  <path
     fill="#16212f"
     d="m 874.70467,939.02084 c 2.7694,1.5979 4.8343,2.9314 6.3486,5.8654 6.389,12.3732 1.6762,30.5066 -2.6183,43.0553 -7.7468,22.61936 -21.0188,39.56236 -42.7098,50.05696 -2.8449,0.8206 -1.3847,0.6748 -4.3781,0.4103 2.3969,-8.1975 13.0076,-16.4895 17.6151,-24.0906 3.482,-5.7412 6.4188,-12.2085 9.2503,-18.29526 8.6078,-18.4977 9.9088,-37.0414 16.117,-55.9143 0.1215,-0.3644 0.251,-0.7261 0.3752,-1.0878 z"
     id="path5"
     style="stroke-width:2.69922" />
  <path
     fill="#16212f"
     d="m 1225.1417,660.04024 c 4.0273,5.4902 6.8695,11.4987 9.477,17.7609 31.7725,76.3474 33.9076,167.8537 1.7194,244.2578 -42.4048,100.65116 -123.5325,160.28236 -221.301,200.25236 l 75.8319,3.8491 c 12.5622,0.5885 28.1421,-0.3752 40.2643,2.6912 4.1757,1.0553 6.5429,2.9502 8.3676,6.8236 3.5278,7.4795 3.6223,19.8231 5.3984,28.2014 4.3511,20.5222 13.0399,40.3588 23.1161,58.6568 8.0086,0.3887 16.0793,0.3644 24.0987,0.5236 11.5364,28.9681 34.5338,53.4878 61.6852,68.7033 11.9819,6.7129 30.288,11.4339 37.7459,23.602 0.4049,3.7708 1.3172,4.2053 -1.1067,7.3472 -4.2512,1.7464 -8.1759,2.4725 -12.7835,2.6372 -16.4679,0.5857 -33.195,-0.4319 -49.6953,-0.521 l -95.4687,0.1431 c -147.94163,0.305 -296.11523,-1.7518 -444.02443,0.6424 -7.1178,11.5527 -14.6244,19.8312 -27.3593,25.5454 -16.1332,7.2393 -36.1183,7.1475 -52.3757,0.3158 -12.8698,-5.4038 -19.5072,-13.2397 -24.6816,-25.7128 -155.5723,-2.27 -311.3847,-0.4048 -466.98128,-0.9069 -22.20108,-0.07 -44.40217,-0.2294 -66.60325,0.03 -12.95356,0.1512 -27.12446,1.6168 -39.89178,-0.1161 -3.3983103,-0.4615 -7.1583303,-1.2497 -9.57953035,-3.8571 -1.24434,-1.3443 -1.12827,-3.2148 -0.6856,-4.918 C 3.6663597,1303.0082 32.03246,1295.634 43.00749,1290.0601 c 28.40389,-14.4247 48.73712,-38.5746 58.30855,-68.6898 6.41875,0.1107 14.39224,0.9906 20.58425,-0.718 14.96448,-4.1298 22.64916,-42.8042 24.05275,-56.357 1.01491,-9.7901 -1.90295,-26.0232 3.20938,-34.4582 16.54082,-7.1989 95.57128,-7.7036 119.14895,-8.6591 -99.42035,-47.7816 -173.94042,-100.025 -218.55583,-205.49966 -0.95282,-2.5157 -1.84087,-5.0476 -2.71001,-7.5903 -28.87356,-84.3371 -20.38721,-163.2245 18.42757,-242.6328 2.46439,8.4026 4.8532,16.8431 7.64419,25.1432 25.12974,74.7225 62.45185,144.3786 135.76807,180.594 4.27286,20.3683 12.15998,39.935 20.28734,59.0427 30.60645,71.96386 74.84667,130.13476 134.74777,180.15406 16.4652,-0.6181 33.0519,-2.7289 49.3417,-5.1393 -7.6199,-9.3663 -15.7364,-18.352 -23.1782,-27.8533 -23.9502,-30.5875 -53.8062,-88.26986 -46.8368,-128.71226 0.6235,-3.6115 1.1579,-5.4335 4.1892,-7.4849 5.4713,1.8678 6.7615,15.04 8.0166,20.3008 13.399,56.20856 41.4816,104.46246 85.2252,142.57276 15.7742,0.1053 31.6295,0.4049 47.2957,2.3915 61.464,7.8035 110.0688,32.8063 147.9767,81.7648 10.2894,-14.8538 20.8272,-28.6063 34.5473,-40.4829 51.2501,-44.359 119.292,-49.9113 183.9923,-45.2848 35.9833,-34.5365 57.5069,-75.7698 72.107,-122.97106 3.0339,-9.8117 3.2013,-31.2947 9.8332,-38.3694 l 2.1108,0.2105 c 3.5306,3.563 5.4741,8.1625 5.6063,13.1857 1.4603,55.40416 -30.709,109.71516 -66.9568,149.03746 13.353,3.3092 27.2135,4.4294 40.8743,5.7493 74.323,-43.6302 141.20163,-155.86376 163.37563,-238.27626 12.3949,-5.9221 23.8531,-14.4382 34.4151,-23.1324 45.938,-37.8214 78.6499,-87.3521 98.0276,-143.3501 4.9341,-14.2573 9.8278,-29.4242 11.2584,-44.5048 z"
     id="path6"
     style="stroke-width:2.69922" />
  <path
     fill="#4b93a8"
     d="m 1214.8793,737.98024 c 1.1094,2.2862 1.7734,4.1919 2.2322,6.7184 9.3879,51.6576 -12.7322,137.2067 -42.9176,179.9381 l -1.8651,-0.5237 c 0.4373,-12.2949 10.0897,-34.0587 13.9388,-46.7343 3.1904,-10.5107 5.7142,-21.3346 8.3082,-32.0073 8.624,-35.4759 14.017,-71.4619 20.3035,-107.3912 z"
     id="path7"
     style="stroke-width:2.69922" />
  <path
     fill="#4b93a8"
     d="m 69.72977,722.46784 c 5.41464,10.0735 17.57732,97.9466 21.76381,118.3149 3.59266,17.4855 19.24274,74.9006 19.41009,88.3806 -28.64412,-52.9938 -53.25291,-146.098 -41.1739,-206.6955 z"
     id="path8"
     style="stroke-width:2.69922" />
  <path
     fill="#fba342"
     d="m 319.89347,1248.0005 104.0226,-0.7666 c 28.5793,-0.048 57.4582,-0.7746 85.7893,3.5954 34.7794,5.3634 67.3401,17.7744 88.6612,46.9124 -80.3557,-2.6452 -160.7628,-2.0136 -241.151,-2.0757 -93.2715,-0.4318 -187.50399,-3.3821 -280.67837,0.2565 18.62462,-13.5555 31.53769,-25.5535 41.06324,-46.8423 67.31584,-1.8598 134.93131,-0.5101 202.29303,-1.0797 z"
     id="path9"
     style="stroke-width:2.69922" />
  <path
     fill="#fba342"
     d="m 777.75137,1248.1193 c 22.9353,-2.2539 46.845,-1.1742 69.899,-1.0716 l 120.6281,1.2119 c 68.83833,0.934 137.91403,-1.2524 206.70633,0.8611 11.5824,18.406 24.984,34.9765 43.2172,47.069 -36.9766,-0.5938 -73.9586,-0.4697 -110.9406,-0.4535 l -254.74433,-0.4265 c -61.2804,-0.2159 -123.1249,-1.9542 -184.2919,2.2647 2.1836,-3.4037 4.4159,-6.767 7.0287,-9.8603 25.235,-29.8965 65.7476,-36.2748 102.4975,-39.5948 z"
     id="path10"
     style="stroke-width:2.69922" />
  <path
     fill="#d0d1c7"
     d="m 416.57417,1134.5361 c 13.0588,-1.5224 27.5833,-1.0365 40.6664,-0.5884 53.6362,1.8327 111.9097,18.02 149.3425,58.7431 23.216,25.2566 20.182,50.3701 18.6813,82.0887 -14.1709,-10.9103 -28.053,-22.6897 -43.5681,-31.6565 -47.9841,-27.7318 -107.0322,-25.818 -160.7116,-25.926 l -264.53166,2.2539 c 10.25974,-21.996 14.73234,-42.7449 18.30611,-66.5682 36.27752,-1.0986 72.61172,-2.2916 108.78125,-5.4038 44.3887,-3.8221 88.5668,-9.8144 133.0338,-12.9428 z"
     id="path11"
     style="stroke-width:2.69922" />
  <path
     fill="#d0d1c7"
     d="m 793.88727,1132.069 c 56.8024,-6.2271 126.2642,5.8951 183.6523,11.7362 46.23493,4.7048 92.45103,7.4985 138.80743,10.5432 3.5008,22.8246 10.4702,43.2145 19.1995,64.4628 -69.0838,0.5857 -138.34043,-1.0554 -207.44583,-1.2903 l -82.7851,-0.2969 c -56.1465,-0.1754 -114.5576,-1.6411 -164.8792,27.2567 -14.0278,8.0572 -23.8935,20.4439 -36.4853,30.3042 l -1.2795,0.9825 c -0.888,-30.2475 1.1418,-58.7539 20.811,-83.109 31.9345,-39.5463 81.5192,-55.4501 130.4047,-60.5894 z"
     id="path12"
     style="stroke-width:2.69922" />
  <path
     fill="#16212f"
     d="m 1104.079,0 c 25.8288,14.75393 37.4814,45.27671 45.0419,72.71428 18.8216,68.32806 7.5848,155.82598 -19.2616,220.85826 17.1994,26.6062 34.7335,53.1342 49.0043,81.4625 41.0632,81.5029 55.6957,175.927 36.3207,265.56 -17.0861,79.0359 -66.0688,153.1565 -134.378,196.9972 -62.2872,39.9755 -131.29543,52.3892 -203.65883,36.5637 -43.8785,-9.5958 -93.4416,-31.4244 -130.1753,-57.5906 -18.2467,-12.9968 -34.7876,-28.2446 -51.3176,-43.3144 -4.7749,11.1262 -9.4391,22.193 -13.5015,33.6053 -13.8551,30.3851 -27.5536,60.6974 -45.7275,88.8043 -21.9284,-26.3039 -37.4678,-62.9188 -51.3121,-93.9841 -3.8842,-10.8212 -7.0369,-21.6666 -9.5796,-32.8819 -14.2761,12.6917 -28.4416,25.8315 -43.6356,37.4166 -58.4597,44.5641 -131.4574,77.9481 -206.2635,73.3108 -70.27694,-4.3592 -134.61285,-44.1322 -180.18378,-96.3837 -61.43425,-70.4416 -85.74072,-166.909 -79.03856,-258.8795 6.51322,-89.3523 41.04164,-168.5339 99.09376,-236.4355 C 134.58393,217.94312 121.29567,133.552 149.87231,60.5327 156.12371,44.55872 171.7144,8.83994 189.53735,2.88816 c 1.96503,-0.65591 2.14858,-0.60462 3.95976,-0.82866 10.39739,9.20164 16.12783,28.80608 22.97576,41.14151 28.05839,50.56179 77.4244,77.13291 134.6803,73.69141 37.0954,-2.22956 74.3365,-12.67014 110.5924,-20.47898 67.2025,-14.47592 136.4186,-27.21624 205.4242,-26.03938 41.6273,0.7099 83.0334,5.51721 123.6296,14.78363 55.0992,12.57836 113.0596,38.23445 170.3451,32.71724 40.60173,-3.91117 78.28013,-24.27408 105.07793,-54.84815 C 1083.2491,43.6005 1090.9986,21.54247 1104.079,0 Z"
     id="path13"
     style="stroke-width:2.69922" />
  <path
     fill="#fba342"
     d="m 632.60347,811.66354 c -10.6133,-20.8623 -21.9446,-41.6975 -31.2056,-63.2076 -13.9766,-32.4662 -28.8007,-72.3337 -14.9672,-106.9674 1.1229,3.7708 2.3078,7.52 3.347,11.3151 5.5523,20.282 31.8265,46.0244 45.3793,62.5544 -0.799,22.3685 -0.7558,44.826 -0.5479,67.2079 0.067,7.4337 1.5871,17.607 0.3806,24.7708 -0.3024,1.7949 -1.3308,2.9313 -2.3862,4.3268 z"
     id="path14"
     style="stroke-width:2.69922" />
  <path
     fill="#d3732a"
     d="m 689.58947,639.84204 c 13.0345,31.7698 7.2231,61.3775 -5.7602,92.1567 -13.3638,31.6808 -30.1691,61.9552 -44.1727,93.4038 -2.3429,-4.3943 -5.4254,-9.0612 -7.0531,-13.739 1.0554,-1.3955 2.0838,-2.5319 2.3862,-4.3268 1.2065,-7.1638 -0.3132,-17.3371 -0.3806,-24.7708 -0.2079,-22.3819 -0.2511,-44.8394 0.5479,-67.2079 5.9356,-8.6321 12.3678,-16.943 18.6489,-25.3267 11.7524,-7.4742 23.7774,-23.6101 34.9603,-33.2112 -1.3037,-6.7184 -2.5966,-10.7294 0.8233,-16.9781 z"
     id="path15"
     style="stroke-width:2.69922" />
  <path
     fill="#fdbc66"
     d="m 631.07307,605.32704 c 16.2267,-2.4653 30.1017,3.1122 42.6801,13.9901 6.6643,5.7655 11.8549,12.6782 15.8363,20.5249 -3.4199,6.2487 -2.127,10.2597 -0.8233,16.9781 -11.1829,9.6011 -23.2079,25.737 -34.9603,33.2112 -6.2811,8.3837 -11.5949,16.9418 -18.6489,25.3267 -13.5528,-16.53 -39.827,-42.2724 -45.3793,-62.5544 -1.0392,-3.7951 -2.2241,-7.5443 -3.347,-11.3151 1.3064,-2.6291 2.6344,-5.2554 4.1433,-7.7711 9.8332,-16.4166 22.0423,-25.5862 40.4991,-28.3904 z"
     id="path16"
     style="stroke-width:2.69922" />
  <path
     fill="#fba342"
     d="m 631.07307,605.32704 c 7.0199,-1.0857 13.9738,-0.7319 21.3745,1.6487 7.4007,2.3806 14.7899,6.5434 21.3056,12.3414 6.6643,5.7655 11.6924,12.9419 15.8363,20.5249 1.6567,3.0315 3.4865,9.76 3.4865,9.76 0,0 -2.5594,5.0297 -4.3098,7.2181 -10.04,12.552 -41.8926,51.136 -53.645,58.6102 22.7875,-31.2653 36.9368,-52.9122 32.5101,-73.2751 -4.1757,-19.2104 -19.4587,-25.8558 -34.3206,-35.376"
     id="path18"
     style="stroke-width:2.69922" />
  <path
     fill="#78bdcb"
     d="m 182.72722,76.31234 c 14.8673,16.67309 31.4756,32.41764 49.99765,44.95281 64.4196,43.59511 133.8651,29.83178 204.8195,15.77425 62.7975,-14.96804 126.5413,-31.45944 191.5124,-31.65376 32.531,-3.81939 84.5018,-1.05809 116.5523,6.04896 l 1.4468,0.11876 c 21.6288,2.00822 43.5681,7.91681 64.4061,13.89829 66.8839,19.19685 122.9035,39.57596 192.83493,19.32101 30.6119,-8.86424 60.1657,-23.8827 84.8365,-44.13225 8.6321,-7.08545 16.5867,-14.78362 24.4253,-22.72203 -0.4751,35.34359 -8.4081,52.31088 -32.0668,78.23959 -16.7805,7.35486 -34.6525,11.94257 -51.9977,17.78516 -10.0843,3.49009 -20.2604,6.33237 -30.58763,8.9992 -32.9062,8.49715 -67.1242,12.23287 -100.5298,18.41138 -67.0594,12.40292 -161.3998,38.93355 -212.9792,84.83113 -37.5597,33.4217 -39.8783,80.0561 -42.6828,126.8147 -8.8993,-38.9011 -7.4471,-78.8334 -31.2623,-113.0217 -36.4611,-52.3487 -118.3473,-82.97135 -179.2633,-96.20833 -32.4852,-7.05846 -65.5506,-10.54585 -98.0843,-17.05637 -18.1792,-3.63585 -36.3072,-8.89663 -54.1895,-13.80921 -13.3261,-3.66014 -31.26232,1.43361 -43.7894,-4.46958 -15.99018,-7.53352 -25.63997,-27.97774 -43.31447,-31.06565 -1.7032,-2.71271 -3.37942,-5.43893 -4.96386,-8.22452 -10.94804,-19.26973 -10.78069,-31.88589 -5.12042,-52.83184 z"
     id="path20"
     style="stroke-width:2.69922" />
  <path
     fill="#d1ecf0"
     d="m 629.05677,105.38564 c 95.2454,-1.10114 200.6186,38.0962 214.2668,44.48315 4.7726,2.28438 -59.3154,-9.21244 -88.6937,-11.95485 -65.2024,-6.08404 -129.0335,-8.3001 -194.4599,-4.01644 -32.3718,2.11889 -98.6338,7.59053 -127.224,3.93579 0,0 76.3116,-19.19143 114.377,-25.72416 36.0161,-6.18102 81.7338,-6.72349 81.7338,-6.72349 z"
     id="path21"
     style="stroke-width:2.69922" />
  <path
     fill="#4b93a8"
     d="m 191.48713,135.24738 c 27.66601,13.45038 58.86697,28.53208 88.42824,37.65655 17.8823,4.91258 36.0103,10.17336 54.1895,13.80921 32.5337,6.51052 65.5991,9.99791 98.0843,17.05637 60.916,13.23698 142.8022,43.85963 179.2633,96.20833 23.8152,34.1883 22.363,74.1206 31.2623,113.0217 2.8045,-46.7586 5.1231,-93.393 42.6828,-126.8147 51.5794,-45.89758 145.9198,-72.42821 212.9792,-84.83113 33.4056,-6.17851 67.6236,-9.91423 100.5298,-18.41138 10.32723,-2.66683 20.50333,-5.50911 30.58763,-8.9992 4.0762,-1.49966 32.1784,-10.58453 58.0377,-24.59184 -12.0196,15.48273 -34.8703,36.28486 -50.8929,47.49472 -33.1356,23.17821 -70.85723,37.76749 -109.59913,48.52388 -57.7741,16.03877 -114.1069,24.5899 -162.2529,63.84195 -81.9348,66.7895 -98.6969,167.0844 -108.9081,265.9218 -15.013,-1.7383 -28.5442,-1.185 -43.4142,1.5196 2.7748,-115.9693 -38.9201,-252.126 -154.004,-301.11956 -23.0595,-9.81707 -47.5306,-15.43684 -71.6832,-21.8178 -57.7741,-15.25869 -117.9532,-33.79423 -161.42147,-77.06813 -12.08711,-12.03312 -25.26,-26.83451 -33.86887,-41.40037 z"
     id="path19"
     style="stroke-width:2.69922" />
  <path
     fill="#78bdcb"
     d="m 193.26497,289.96374 c -2.48598,-15.22633 -7.40936,-30.39055 -11.12348,-45.38472 -9.49046,-38.31003 -14.58929,-75.80759 -12.465,-115.43754 3.35243,12.24906 6.37286,24.86251 10.88055,36.74448 7.39857,19.49377 19.50187,36.15335 33.67007,51.29328 42.54511,45.46836 98.78876,68.6682 159.78036,76.4419 29.1596,3.7141 58.4948,-0.3536 85.9215,12.3112 52.8265,24.3847 77.5324,84.2696 96.2272,135.571 -0.6289,-0.2106 -1.2686,-0.3914 -1.8894,-0.6289 -3.6494,-1.4063 -27.5537,-35.5191 -32.971,-41.5491 -53.7712,-59.8579 -143.2584,-82.391 -218.8366,-54.8347 -40.7636,14.8619 -78.13697,46.1891 -96.53756,85.9108 -4.67235,10.0843 -9.11526,32.477 -13.72823,39.3357 -6.20281,29.238 -7.40936,56.6431 -5.61707,86.4425 15.88221,76.5715 54.77257,149.4504 121.63226,193.1697 49.2715,32.2179 102.2437,44.4994 160.2392,32.1396 12.3273,-2.6236 50.1407,-17.0887 56.6215,-16.8188 -23.9367,20.4223 -48.7452,38.5691 -77.0492,52.516 -54.9534,27.0732 -115.416,38.2669 -174.4857,17.9552 -62.03077,-21.3265 -115.05425,-75.0788 -143.31238,-133.3819 -49.98686,-103.1426 -39.67314,-226.3539 13.41512,-326.001 6.52942,-12.2572 13.07772,-24.6493 20.47899,-36.4017 9.54714,-15.1507 23.06213,-30.9979 28.73589,-48.0704 0.14576,-0.4373 0.27532,-0.8827 0.41298,-1.3226 z"
     id="path23"
     style="stroke-width:2.69922" />
  <path
     fill="#16212f"
     d="m 433.26877,798.16744 c -10.3434,4.281 -20.46,7.8008 -31.5322,9.6578 -45.544,7.6388 -93.5604,-10.06 -130.0647,-36.6068 -55.58499,-40.4181 -89.24157,-104.2115 -99.45002,-171.3897 -5.01785,-33.033 -0.58033,-102.2815 19.97153,-130.0916 -6.20281,29.238 -7.40936,56.6431 -5.61707,86.4425 -0.23214,12.16 0.0945,23.9097 1.79768,35.9671 9.62811,68.1823 44.21322,128.0996 99.46358,169.4031 45.1336,33.7402 90.2484,44.7612 145.4312,36.6176 z"
     id="path24"
     style="stroke-width:2.69922" />
  <path
     fill="#d0d1c7"
     d="m 720.58727,432.09384 c 9.0208,-10.7159 16.3033,-22.6303 25.8127,-32.9602 33.5081,-36.3909 82.3613,-60.9457 131.7516,-65.1241 49.0718,-4.1541 94.6157,9.9359 132.08093,42.0053 45.7896,39.1927 60.4059,88.996 64.8164,147.2721 5.034,66.5466 -13.7876,132.4616 -57.6338,183.3796 -38.92273,45.1985 -89.98663,73.0005 -149.82293,76.9845 -28.9194,1.9245 -56.4083,-4.1514 -84.9822,-3.8113 4.1946,4.3107 11.3961,16.6839 11.3961,16.6839 0,0 -6.2727,3.4446 -9.9169,3.8545 -27.7183,-16.4788 -54.2328,-36.291 -74.9007,-61.2318 7.4364,-27.694 13.8146,-54.392 9.701,-83.271 -4.6885,-32.917 -21.367,-54.8805 -47.2741,-74.5389 6.1002,-19.4722 10.616,-39.5652 16.2682,-59.1912 8.8345,-30.6794 19.6773,-60.9025 32.7037,-90.0514 z"
     id="path27"
     style="fill:#eff0ed;fill-opacity:1;stroke-width:2.69922" />
  <path
     fill="#78bdcb"
     d="m 1120.3715,126.93082 c -1.5332,56.94004 -6.8101,108.11186 -23.2646,162.93302 11.029,36.3396 37.0549,68.7896 54.0843,102.8052 49.0016,97.8656 54.8724,221.1093 2.243,318.7779 -32.01,59.4044 -84.939,107.1455 -150.3033,126.426 -67.25383,19.8393 -138.30283,-1.511 -201.24583,-26.312 -29.4092,-11.5879 -71.9314,-50.6361 -71.9314,-50.6361 42.8123,15.5772 92.1133,24.5807 137.6385,22.7262 59.8363,-3.984 110.9002,-31.786 149.82293,-76.9845 43.8462,-50.918 62.6678,-116.833 57.6338,-183.3796 -4.4105,-58.2761 -19.0268,-108.0794 -64.8164,-147.2721 -37.46523,-32.0694 -83.00913,-46.1594 -132.08093,-42.0053 -49.3903,4.1784 -98.2435,28.7332 -131.7516,65.1241 -9.5094,10.3299 -16.7919,22.2443 -25.8127,32.9602 9.091,-36.4341 54.1167,-106.1414 86.1942,-125.4139 33.5243,-20.1442 72.412,-12.9751 109.4507,-15.9227 69.8288,-5.5577 138.32153,-44.35895 176.38593,-103.53395 11.9657,-18.60032 20.4574,-39.47069 27.7534,-60.29247 z"
     id="path25"
     style="stroke-width:2.69922" />
  <path
     fill="#16212f"
     d="m 1068.7246,443.96504 c 1.8922,2.1755 3.5846,4.5886 5.08,7.053 30.5578,50.443 34.998,121.1437 21.3994,177.4171 -14.8215,61.337 -50.8102,119.4647 -105.52603,152.6354 -41.5302,25.1784 -87.7328,32.7713 -134.8612,21.4588 -7.5173,-2.0703 -14.3652,-5.0097 -21.4804,-8.1462 30.2448,7.3338 59.8013,6.4997 89.876,-1.7167 55.1828,-15.0751 102.24913,-57.8065 130.05653,-106.9242 41.8568,-73.9262 37.6217,-162.628 15.4557,-241.7772 z"
     id="path26"
     style="stroke-width:2.69922" />
  <path
     fill="#E0D5C6"
     d="m 765.71287,655.89694 c 23.8665,24.0231 53.5706,38.1539 88.0342,38.2862 30.35,0.1161 55.31,-13.8989 78.5463,-35.292 0.7147,-0.658 1.3631,-1.3874 2.0379,-2.0892 0.1782,3.266 0.3131,6.5861 -0.2402,9.8278 -3.1419,18.3709 -14.6495,37.4132 -29.9298,47.484 -20.9325,13.7957 -45.5953,17.8122 -70.0232,12.7781 -22.8246,-4.7047 -45.0851,-16.8944 -57.874,-36.9091 -6.4295,-10.06 -13.2639,-21.9528 -10.5512,-34.0858 z"
     id="path28"
     style="fill:#b7b7b7;fill-opacity:1;stroke-width:2.69922" />
  <path
     fill="url(#gradient_0)"
     d="m 858.84587,459.70394 c -20.3845,0.4562 -38.8364,4.2945 -57.1533,13.515 -29.5187,14.8565 -53.4634,41.2144 -63.653,72.8736 -9.4311,29.3027 -6.0192,61.3073 8.2542,88.4696 14.3005,27.2108 41.8703,46.9988 70.9463,55.8819 31.9129,9.7523 61.1077,3.9409 90.0217,-11.3151 17.7447,-11.0344 31.6727,-25.1621 42.2644,-43.2307 17.6475,-30.1125 20.7489,-61.7446 12.0709,-95.2663 4.7614,-1.8273 9.6578,-3.8787 14.0926,-6.4106 24.69793,-14.1115 46.21613,-45.3037 53.95743,-72.2824 -70.63313,45.5277 -102.36253,1.8193 -170.80123,-2.235 z"
     id="path44"
     style="fill:#16212f;fill-opacity:1;stroke-width:2.69922" />
  <path
     fill="#d0d1c7"
     d="m 888.87557,518.79004 c 3.0944,-0.698 6.5141,0.2273 9.3852,1.5764 6.4115,3.0127 13.1365,7.4472 16.0873,13.8875 2.4316,5.307 2.5411,12.2519 0.011,17.5125 -3.4443,7.1611 -10.9192,12.9604 -18.6327,14.87 -4.4258,1.0957 -9.4175,-0.4062 -13.4367,-2.5588 -5.9861,-3.2061 -11.9836,-8.1494 -14.2627,-14.5461 -1.9397,-5.4444 -1.3246,-12.2682 1.5764,-17.267 3.9344,-6.7796 11.626,-11.7495 19.2724,-13.4745 z"
     id="path30"
     style="stroke-width:2.69922" />
  <path
     fill="#fba342"
     d="m 930.38137,576.46474 c 0,0 3.4561,14.342 3.0394,21.6014 -0.6509,11.341 -3.0123,22.5682 -8.5781,32.9818 -9.2961,17.3965 -25.5481,29.6212 -44.4535,34.7687 -24.2632,6.6049 -45.5504,1.4191 -64.4645,-9.2332 -5.2262,-2.9434 -9.3944,-8.1559 -11.4153,-13.9096 -2.4478,-6.9693 -3.7579,-13.6989 -3.7579,-13.6989 8.7805,4.972 17.9012,10.0789 27.7021,12.7079 19.5693,5.2446 53.0647,-5.4599 70.2911,-15.7331 32.4517,-19.4544 31.6367,-49.485 31.6367,-49.485 z"
     id="path31"
     style="stroke-width:2.69922" />
  <path
     fill="#d0d1c7"
     d="m 192.19338,469.73714 c 4.61297,-6.8587 9.05588,-29.2514 13.72823,-39.3357 18.40059,-39.7217 55.77396,-71.0489 96.53756,-85.9108 75.5782,-27.5563 165.0654,-5.0232 218.8366,54.8347 5.4173,6.03 29.3216,40.1428 32.971,41.5491 0.6208,0.2375 1.2605,0.4183 1.8894,0.6289 9.1099,23.9016 17.2777,47.517 24.2552,72.1231 6.4161,22.633 11.5581,46.1675 20.1335,68.0906 -24.9516,20.2954 -41.3493,43.4034 -44.7747,76.0937 -2.5372,24.1931 2.6183,45.7841 10.3947,68.5305 -12.0466,14.6702 -25.9395,26.9328 -41.0956,38.3289 -6.4808,-0.2699 -44.2942,14.1952 -56.6215,16.8188 -57.9955,12.3598 -110.9677,0.078 -160.2392,-32.1396 -66.85969,-43.7193 -105.75005,-116.5982 -121.63226,-193.1697 -1.79229,-29.7994 -0.58574,-57.2045 5.61707,-86.4425 z"
     id="path32"
     style="fill:#eff0ed;fill-opacity:1;stroke-width:2.69922" />
  <defs
     id="defs33">
    <linearGradient
       id="gradient_0"
       gradientUnits="userSpaceOnUse"
       x1="455.65601"
       y1="453.09079"
       x2="379.95972"
       y2="488.90326"
       gradientTransform="matrix(2.69922,0,0,2.69922,-739.34253,-719.03712)">
      <stop
         offset="0"
         stop-color="#0B1727"
         id="stop32" />
      <stop
         offset="1"
         stop-color="#342C2F"
         id="stop33" />
    </linearGradient>
  </defs>
  <path
     fill="url(#gradient_0)"
     d="m 392.60507,461.12124 c 20.3845,0.4562 38.8364,4.2945 57.1533,13.515 29.5187,14.8565 53.4634,41.2144 63.653,72.8735 9.4311,29.3028 6.0192,61.3074 -8.2542,88.4697 -14.3005,27.2108 -41.8703,46.9988 -70.9463,55.8819 -31.9129,9.7523 -61.1077,3.9409 -90.0217,-11.3151 -17.7447,-11.0344 -31.6727,-25.1621 -42.2644,-43.2307 -17.6475,-30.1125 -20.7489,-61.7447 -12.0709,-95.2663 -4.7614,-1.8274 -9.6578,-3.8788 -14.0926,-6.4106 -24.6979,-14.1115 -46.21608,-45.3037 -53.95744,-72.2824 70.63314,45.5277 102.36254,1.8192 170.80124,-2.235 z"
     id="path33"
     style="fill:url(#gradient_0);stroke-width:2.69922" />
  <path
     fill="#d0d1c7"
     d="m 433.51987,524.13994 c 3.675,-0.8741 7.7941,0.4254 11.11,2.2349 5.9528,3.2486 11.8833,8.2169 14.1655,14.6028 1.9295,5.3991 1.4148,12.1672 -1.4387,17.1401 -3.4483,6.0093 -10.2504,10.4104 -17.0051,11.9521 -3.3936,0.7746 -7.1507,-0.2267 -10.3029,-1.7032 -5.9595,-2.7913 -12.2192,-6.9116 -14.9429,-12.9023 -2.3368,-5.1396 -2.3958,-11.8665 0.086,-16.9376 3.4145,-6.9758 10.7718,-12.5897 18.3277,-14.3868 z"
     id="path35"
     style="stroke-width:2.69922" />
  <path
     d="m 480.28837,578.96294 c 0,0 0.8149,30.03 -31.6368,49.4844 -14.1658,8.4479 -39.3193,17.1674 -58.6972,17.0898 -0.5021,1.9587 -1.1727,4.8334 -1.1055,6.9473 0.1772,5.571 3.5604,15.3913 4.1582,17.0918 11.6042,2.4185 23.998,2.3563 37.2891,-1.2617 18.9054,-5.1475 35.157,-17.3711 44.4531,-34.7676 5.5658,-10.4136 7.9272,-21.6414 8.5781,-32.9824 0.4166,-7.2594 -3.039,-21.6016 -3.039,-21.6016 z"
     style="fill:#fba342;stroke-width:2.69922"
     id="path41" />
  <path
     d="m 393.00707,669.57624 c -0.5978,-1.7005 -3.5046,-10.3998 -3.6818,-15.9708 -0.067,-2.1139 0.127,-6.1096 0.6291,-8.0683 -4.1867,-0.017 -8.1189,-0.4237 -11.5957,-1.3554 -9.8009,-2.629 -18.9207,-7.737 -27.7012,-12.709 0,0 1.31,6.7299 3.7578,13.6992 2.0209,5.7537 6.1898,10.9667 11.416,13.9101 8.5532,4.8171 17.5963,8.4977 27.1758,10.4942 z"
     style="fill:#594137;stroke-width:5.9;stroke-linecap:round;paint-order:markers fill stroke"
     id="path43" />
  <path
     fill="#E0D5C6"
     d="m 489.56687,657.78794 c -23.8665,24.0231 -54.4297,38.1669 -88.8934,38.2992 -30.35,0.1161 -58.5106,-12.8406 -79.91,-34.1428 -0.6883,-0.6856 -1.3631,-1.3874 -2.0379,-2.0892 -0.1781,3.2661 -0.3297,6.8051 0.2236,10.0469 3.1419,18.3709 15.588,34.4474 30.8683,44.5182 20.9325,13.7957 45.5953,17.8122 70.0232,12.7781 22.8246,-4.7047 46.3861,-15.3099 59.175,-35.3246 6.4295,-10.06 13.2639,-21.9528 10.5512,-34.0858 z"
     id="path28-9"
     style="fill:#b7b7b7;fill-opacity:1;stroke-width:2.69922" />
</svg>
